<?xml version="1.0" encoding="utf-8"?>
<!DOCTYPE svg PUBLIC "-//W3C//DTD SVG 1.1//EN" "http://www.w3.org/Graphics/SVG/1.1/DTD/svg11.dtd">
<svg version="1.1" xmlns="http://www.w3.org/2000/svg" xmlns:xlink="http://www.w3.org/1999/xlink" x="0px" y="0px" viewBox="0 0 1000 1000" enable-background="new 0 0 1000 1000" xml:space="preserve">
<g><path d="M486.1,539.8c-27.5,103.6-20.3,211.7-15.8,254c46.4-93.5,154.3-300.6,226.8-354.6c-67.4,109-169,252.2-200.2,373.6c202.4,0.4,364.8-154.4,400.9-318.2C944.7,282.2,990,224.9,990,224.9C685.9,179.9,537.8,344.9,486.1,539.8L486.1,539.8z M429.5,707.3c-37-31.3-161.6-140.2-195.7-212.2c37.6,45.2,167.9,149.8,199.5,175c11.9-99.5,39.3-195.6,39.3-195.6S436.4,393.8,304.2,307C220.6,252.1,24.6,187.1,24.6,187.1s-60.4,231.5,64.2,418.9c150.1,225.7,343.8,206,343.8,206C426.9,781.8,426.6,745.2,429.5,707.3L429.5,707.3z"/></g>
</svg>