<?xml version="1.0" encoding="utf-8"?>
<!-- Svg Vector Icons : http://www.onlinewebfonts.com/icon -->
<!DOCTYPE svg PUBLIC "-//W3C//DTD SVG 1.1//EN" "http://www.w3.org/Graphics/SVG/1.1/DTD/svg11.dtd">
<svg version="1.1" xmlns="http://www.w3.org/2000/svg" xmlns:xlink="http://www.w3.org/1999/xlink" x="0px" y="0px" viewBox="0 0 1000 1000" enable-background="new 0 0 1000 1000" xml:space="preserve">
<metadata> Svg Vector Icons : http://www.onlinewebfonts.com/icon </metadata>
<g><g transform="translate(0.000000,512.000000) scale(0.100000,-0.100000)"><path d="M4621.7,5010.8c-981.4-82.4-1947.4-465.8-2687.2-1061.9c-218.5-176.3-542.4-496.4-728.3-720.7C721.2,2639.9,343.6,1857.9,196,1133.4c-82.4-414-97.8-563.5-95.8-1025.4c0-500.3,34.5-785.8,149.5-1226.7c174.4-670.8,519.4-1345.5,966-1884.1c310.5-375.7,766.7-776.3,1192.2-1046.5c189.8-120.7,672.8-356.5,902.8-440.8c258.8-93.9,651.7-195.5,956.4-243.4c314.3-51.7,1046.5-63.3,1332.1-21.1c1161.5,168.7,2127.5,651.7,2913.4,1462.4C9706.7-2061.8,10166.7-340.6,9748.8,1327c-203.2,810.8-634.4,1579.4-1226.7,2190.8c-835.7,862.5-1903.3,1376.2-3095.5,1487.4C5231.2,5022.4,4799.9,5026.2,4621.7,5010.8z M5470.8,4524c820.4-88.2,1650.3-431.3,2294.3-944.9c184-147.6,525.2-486.8,674.7-672.8c527.1-651.7,872.1-1483.5,962.2-2313.5c26.8-239.6,26.8-711.1,0-950.7c-90.1-837.6-433.2-1657.9-966-2313.5C7698-3576,6620.8-4164.4,5470.8-4289c-239.6-26.8-711.1-26.8-950.7,0c-818.4,88.2-1650.3,431.3-2294.3,945c-184,147.6-525.2,486.8-674.7,672.8C1024-2017.7,679-1189.7,588.9-357.8C541,73.4,571.7,636.9,665.6,1075.9c134.2,617.2,461.9,1301.4,868.3,1811.3c149.5,185.9,484.9,523.3,670.8,672.8c636.3,513.7,1406.9,843.3,2225.3,954.5C4665.7,4547,5219.7,4552.8,5470.8,4524z"/><path d="M4612.1,4083.2c-707.3-67.1-1414.5-343.1-2006.8-780.1c-214.7-159.1-630.6-576.9-795.4-795.4C748,1079.7,748-842.8,1809.8-2272.6c162.9-216.6,578.8-632.5,795.4-795.4c517.5-383.3,1096.4-630.6,1748-745.6c205.1-36.4,318.2-44.1,642.1-44.1c323.9,0,437,7.7,642.1,44.1c649.8,115,1232.4,362.2,1748,745.6c216.6,162.9,632.5,578.8,795.4,795.4c383.3,515.6,630.6,1098.3,745.6,1748c36.4,205.1,44.1,318.2,44.1,642.1s-7.7,437-44.1,642.1c-115,649.8-362.2,1232.4-745.6,1748c-162.9,216.6-578.8,632.5-795.4,795.4C6582.4,3899.2,5595.4,4177.1,4612.1,4083.2z M5514.8,1227.3C6524.9,625.4,7353,125.2,7353,117.5c0-13.4-3664.8-2204.2-3687.7-2204.2c-5.8,0-11.5,992.8-11.5,2204.2c0,1213.3,5.7,2204.2,11.5,2204.2C3671,2321.7,4502.8,1829.1,5514.8,1227.3z"/></g></g>
</svg>